<svg width="14" height="11" viewBox="0 0 14 11" fill="none" xmlns="http://www.w3.org/2000/svg">
<path opacity="0.5" d="M12.25 0.5H1.75C0.765625 0.5 0 1.29297 0 2.25V9.25C0 10.2344 0.765625 11 1.75 11H12.25C13.207 11 14 10.2344 14 9.25V2.25C14 1.29297 13.207 0.5 12.25 0.5ZM4.375 8.8125H2.1875C1.94141 8.8125 1.75 8.62109 1.75 8.375V7.9375C1.75 7.71875 1.94141 7.5 2.1875 7.5H4.375V8.8125ZM7.875 8.375C7.875 8.62109 7.65625 8.8125 7.4375 8.8125H5.25V7.5H7.4375C7.65625 7.5 7.875 7.71875 7.875 7.9375V8.375ZM12.25 4.875C12.25 5.36719 11.8398 5.75 11.375 5.75H2.625C2.13281 5.75 1.75 5.36719 1.75 4.875V3.125C1.75 2.66016 2.13281 2.25 2.625 2.25H11.375C11.8398 2.25 12.25 2.66016 12.25 3.125V4.875Z" fill="#1D2944"/>
</svg>
