<svg width="30" height="36" viewBox="0 0 30 36" fill="none" xmlns="http://www.w3.org/2000/svg">
<path opacity="0.05" d="M22.5841 1.52302L22.5828 1.52235C22.5715 1.5157 22.5602 1.50905 22.549 1.50306L20.2655 0.185652C19.8809 -0.0745027 19.3638 -0.0711759 18.7949 0.258841L2.15087 9.90319C0.962719 10.5912 0 12.4375 0 14.0264V30.7295C0 31.5812 0.277146 32.186 0.716072 32.4581L3.01015 33.7742C3.08972 33.8354 3.17525 33.8847 3.26608 33.9213H3.26675C3.62279 34.0643 4.06238 34.0171 4.53777 33.7416L21.1825 24.0979C22.37 23.4099 23.3333 21.5636 23.3333 19.974V3.27091C23.3327 2.39863 23.0429 1.78584 22.5841 1.52302Z" fill="black"/>
<path d="M28.5841 3.52302L28.5828 3.52235C28.5715 3.5157 28.5602 3.50905 28.549 3.50306L26.2655 2.18565C25.8809 1.9255 25.3638 1.92882 24.7949 2.25884L8.15087 11.9032C6.96272 12.5912 6 14.4375 6 16.0264V32.7295C6 33.5812 6.27715 34.186 6.71607 34.4581L9.01015 35.7742C9.08972 35.8354 9.17525 35.8847 9.26608 35.9213H9.26675C9.62279 36.0643 10.0624 36.0171 10.5378 35.7416L27.1825 26.0979C28.37 25.4099 29.3333 23.5636 29.3333 21.974V5.27091C29.3327 4.39863 29.0429 3.78584 28.5841 3.52302Z" fill="#CAA522"/>
<path d="M27.2112 3.59294L10.7882 13.2505C9.61653 13.9395 8.66667 15.7885 8.66667 17.3797V34.1069C8.66667 35.6981 9.61653 36.4297 10.7888 35.7407L27.2112 26.0831C28.3828 25.3942 29.3333 23.5451 29.3333 21.9533V5.22675C29.3327 3.63492 28.3835 2.9033 27.2112 3.59294Z" fill="#F2C935"/>
<path d="M27.1266 3.59385L10.6602 13.3095C10.2116 13.5743 9.79574 14.0094 9.45271 14.5349C9.41204 14.6019 9.37138 14.671 9.33333 14.7407L16.3843 20.2601C17.8758 21.4278 20.3066 19.9933 21.7987 17.0654L28.6667 3.58514C28.279 3.26003 27.7327 3.2359 27.1266 3.59385Z" fill="#E9BE25"/>
</svg>
