<svg width="19" height="26" viewBox="0 0 19 26" fill="none" xmlns="http://www.w3.org/2000/svg">
<g clip-path="url(#clip0)">
<path d="M6.39911 19.4181V23.0332C6.39911 24.6714 7.78731 25.9998 9.50039 25.9998C11.2135 25.9998 12.6017 24.6719 12.6017 23.0332V18.9072L6.39911 19.4181Z" fill="url(#paint0_linear)"/>
<path d="M4.31763 17.7443V19.8761C4.31763 22.6142 6.63802 24.8333 9.49988 24.8333C12.3623 24.8333 14.6821 22.6137 14.6821 19.8761V16.8901L4.31763 17.7443Z" fill="url(#paint1_linear)"/>
<path d="M9.4679 22.454C6.6055 22.454 4.28564 20.2343 4.28564 17.4967V18.3808C4.28564 21.1189 6.60603 23.3381 9.4679 23.3381C12.3298 23.3381 14.6502 21.1184 14.6502 18.3808V17.4967C14.6507 20.2343 12.3303 22.454 9.4679 22.454Z" fill="#C5BAEB"/>
<path d="M19.0007 9.0868C19.0007 4.04625 14.7103 -0.0355476 9.43249 -0.00050851C4.26192 0.0345306 0.0394609 4.07215 0.00123897 9.01824C-0.0168103 11.3679 0.89733 13.5129 2.41134 15.1353C2.93052 15.6919 3.34088 16.3373 3.58932 17.0447C4.41905 19.4071 6.75218 21.1093 9.5015 21.1093C12.2508 21.1093 14.584 19.4076 15.4137 17.0447C15.6605 16.3414 16.0651 15.698 16.5821 15.1455C18.0855 13.5373 19.0007 11.4146 19.0007 9.0868Z" fill="url(#paint2_radial)"/>
<path d="M11.9364 15.5216C11.9067 15.5216 11.8764 15.5196 11.8462 15.516C11.4783 15.4688 11.2203 15.1453 11.2697 14.7939L12.3818 6.16519C12.4312 5.81327 12.7693 5.56647 13.1367 5.6137C13.5046 5.66093 13.7626 5.9844 13.7132 6.33581L12.6011 14.9646C12.5559 15.287 12.2677 15.5216 11.9364 15.5216Z" fill="url(#paint3_linear)"/>
<path d="M7.77779 17.8671C7.51448 17.8671 7.26445 17.7178 7.15721 17.4705L5.7085 10.4424C5.56623 10.1143 5.7292 9.73855 6.0716 9.60296C6.41401 9.46737 6.80738 9.62277 6.94911 9.9503L8.39783 16.9784C8.5401 17.306 8.37713 17.6823 8.03472 17.8178C7.95085 17.8514 7.86326 17.8671 7.77779 17.8671Z" fill="url(#paint4_linear)"/>
<path d="M6.32952 10.839C6.1039 10.839 5.8836 10.7303 5.75672 10.5327C5.56243 10.2306 5.6617 9.8345 5.97756 9.64915L12.6967 5.70243C13.0125 5.51708 13.4266 5.61154 13.6203 5.91368C13.8146 6.21583 13.7154 6.61193 13.3995 6.79728L6.68042 10.744C6.57053 10.8085 6.44896 10.839 6.32952 10.839Z" fill="#FFA538"/>
<path d="M14.6312 2.62417C12.3586 1.22871 9.62948 1.42015 8.53485 3.05124C7.44022 4.68234 8.39523 7.13558 10.6678 8.53105C12.9405 9.92652 15.6696 9.73507 16.7642 8.10398C17.8589 6.47288 16.9039 4.01964 14.6312 2.62417Z" fill="url(#paint5_linear)"/>
</g>
<defs>
<linearGradient id="paint0_linear" x1="6.3989" y1="22.4536" x2="13.2043" y2="22.4536" gradientUnits="userSpaceOnUse">
<stop offset="0.1018" stop-color="#41464E"/>
<stop offset="0.5876" stop-color="#4B515A"/>
<stop offset="1" stop-color="#565D68"/>
</linearGradient>
<linearGradient id="paint1_linear" x1="4.31763" y1="20.8619" x2="15.6905" y2="20.8619" gradientUnits="userSpaceOnUse">
<stop stop-color="#D7D1EB"/>
<stop offset="0.8982" stop-color="#E9E5F6"/>
</linearGradient>
<radialGradient id="paint2_radial" cx="0" cy="0" r="1" gradientUnits="userSpaceOnUse" gradientTransform="translate(6.97232 11.6961) scale(15.4309 14.761)">
<stop offset="0.0338" stop-color="#FCF3B3"/>
<stop offset="0.1424" stop-color="#FCF1A8"/>
<stop offset="0.3326" stop-color="#FAEC8B"/>
<stop offset="0.5803" stop-color="#F8E55C"/>
<stop offset="0.7097" stop-color="#F7E041"/>
<stop offset="0.9517" stop-color="#FFC538"/>
</radialGradient>
<linearGradient id="paint3_linear" x1="13.0815" y1="6.41795" x2="11.9989" y2="14.732" gradientUnits="userSpaceOnUse">
<stop stop-color="#FFA538"/>
<stop offset="1" stop-color="#FFA538" stop-opacity="0"/>
</linearGradient>
<linearGradient id="paint4_linear" x1="6.29675" y1="11.971" x2="8.36182" y2="17.1617" gradientUnits="userSpaceOnUse">
<stop stop-color="#FFA538"/>
<stop offset="1" stop-color="#FFA538" stop-opacity="0"/>
</linearGradient>
<linearGradient id="paint5_linear" x1="8.05436" y1="11.4004" x2="13.1491" y2="4.34577" gradientUnits="userSpaceOnUse">
<stop stop-color="white"/>
<stop offset="1" stop-color="white" stop-opacity="0"/>
</linearGradient>
<clipPath id="clip0">
<rect width="19" height="26" fill="white"/>
</clipPath>
</defs>
</svg>
