<svg width="37" height="36" viewBox="0 0 37 36" fill="none" xmlns="http://www.w3.org/2000/svg">
<path opacity="0.08" d="M8.31326 7.47812L19.6051 0.99254C24.1964 -1.64468 27.9184 1.1545 27.9184 7.24485C27.9184 13.3352 24.1964 20.4095 19.6051 23.0457L15.1725 25.5913L8.77709 34.1049C8.19755 34.876 7.51357 34.5389 7.71221 33.5804L8.58357 29.3765L8.31326 29.5313C3.72197 32.1685 0 29.3694 0 23.279C0 17.1897 3.72197 10.1153 8.31326 7.47812Z" fill="black"/>
<path d="M33.8706 6.13791L29.3324 3.52164C27.878 2.657 25.971 2.72398 23.8809 3.92758L12.6657 10.3891C8.10517 13.0165 4.40813 20.0646 4.40813 26.1313C4.40813 29.529 5.56759 31.8986 7.38916 32.8648L11.8348 35.4313C13.2861 36.2807 15.184 36.2087 17.2618 35.0122L21.6647 32.4751L28.0174 33.6371C28.593 33.7426 29.2724 32.6232 29.0751 31.8956L28.2096 28.7039L28.4781 28.5497C33.0376 25.9222 36.7347 18.8742 36.7347 12.8064C36.7347 9.48181 35.624 7.14158 33.8706 6.13791Z" fill="#268CDD"/>
<path d="M28.4215 6.85735L17.1296 13.2577C12.5384 15.8603 8.81639 22.8417 8.81639 28.851C8.81639 34.8604 12.5384 37.6228 17.1296 35.0212L21.5622 32.5081L27.9577 33.6591C28.5372 33.7637 29.2212 32.6559 29.0225 31.9341L28.1512 28.7726L28.4215 28.6198C33.0128 26.0183 36.7348 19.0369 36.7348 13.0265C36.7348 7.01618 33.0128 4.25478 28.4215 6.85735Z" fill="#38A7FF"/>
<path d="M17.6503 23.3971L16.9647 23.023C16.57 22.7041 16.0111 22.6806 15.3924 23.0291C14.1949 23.7047 13.2245 25.5148 13.2245 27.0735C13.2245 27.9085 13.503 28.5003 13.9447 28.7681L14.6827 29.183C15.0742 29.4611 15.6091 29.4672 16.1995 29.134C17.397 28.4594 18.3674 26.6483 18.3674 25.0896C18.3674 24.2577 18.091 23.6659 17.6503 23.3971Z" fill="#D1D1D1"/>
<path d="M18.3674 24.5474C18.3674 26.0362 17.3808 27.7661 16.1633 28.4105C14.9458 29.0558 13.9592 28.3705 13.9592 26.8817C13.9592 25.3929 14.9458 23.6629 16.1633 23.0186C17.3808 22.3733 18.3674 23.0586 18.3674 24.5474Z" fill="white"/>
<path d="M25.7319 18.2541L25.0462 17.8802C24.6505 17.5613 24.0926 17.5368 23.474 17.8863C22.2764 18.5617 21.3061 20.3714 21.3061 21.9307C21.3061 22.7645 21.5845 23.3572 22.0262 23.6249L22.7642 24.0398C23.1547 24.3177 23.6906 24.3239 24.281 23.9918C25.4785 23.3163 26.4489 21.5067 26.4489 19.9473C26.4489 19.1145 26.1715 18.5229 25.7319 18.2541Z" fill="#D1D1D1"/>
<path d="M26.4489 20.1381C26.4489 21.627 25.4624 23.3572 24.2449 24.0025C23.0273 24.6469 22.0408 23.9625 22.0408 22.4735C22.0408 20.9846 23.0273 19.2544 24.2449 18.61C25.4624 17.9656 26.4489 18.6491 26.4489 20.1381Z" fill="white"/>
<path d="M33.8136 13.8456L33.1279 13.4715C32.7333 13.1526 32.1743 13.1291 31.5556 13.4776C30.3581 14.1522 29.3877 15.9633 29.3877 17.522C29.3877 18.356 29.6662 18.9488 30.1079 19.2166L30.8459 19.6315C31.2364 19.9095 31.7713 19.9157 32.3627 19.5825C33.5602 18.9069 34.5306 17.0968 34.5306 15.5381C34.5306 14.7051 34.2532 14.1134 33.8136 13.8456Z" fill="#D1D1D1"/>
<path d="M34.5306 15.7309C34.5306 17.2197 33.544 18.9496 32.3265 19.594C31.109 20.2393 30.1225 19.5539 30.1225 18.0651C30.1225 16.5763 31.109 14.8464 32.3265 14.2011C33.544 13.5577 34.5306 14.2421 34.5306 15.7309Z" fill="white"/>
</svg>
