<svg width="16" height="24" viewBox="0 0 16 24" fill="none" xmlns="http://www.w3.org/2000/svg">
<path d="M15.6075 10.526C14.235 8.02845 12.6375 4.87095 12.285 3.49845C12.18 3.09345 12.1875 2.75595 12.5625 2.44845C12.885 2.17845 13.2825 2.19345 13.5075 2.33595C13.8375 2.55345 13.7625 3.03345 13.6875 3.29595C13.59 3.65595 13.425 3.76095 13.2975 3.81345L13.845 5.19345C14.28 5.02095 14.8575 4.61595 15.12 3.69345C15.4275 2.59095 15.1275 1.61595 14.3175 1.09095C13.515 0.565946 12.405 0.655946 11.6175 1.30095C11.0775 1.74345 10.5075 2.54595 10.845 3.86595C11.3175 5.71095 13.4175 9.64095 14.3025 11.2385C14.31 11.246 14.31 11.261 14.3025 11.2685L9.83247 21.7385C9.82497 21.7535 9.80247 21.7685 9.77997 21.761L2.00997 18.446C1.98747 18.4385 1.97997 18.416 1.98747 18.3935L6.47247 7.89345C6.47247 7.88595 6.47997 7.87845 6.49497 7.87095L10.8525 6.51345L10.41 5.10345L6.03747 6.46095L6.02247 6.46845C5.60997 6.60345 5.27997 6.91095 5.10747 7.30845L0.622471 17.8085C0.292463 18.581 0.652471 19.4735 1.42497 19.8035L9.20247 23.126C9.39747 23.2085 9.59997 23.246 9.80247 23.246C9.99747 23.246 10.185 23.2085 10.3725 23.1335C10.7475 22.9835 11.0475 22.691 11.205 22.316L15.675 11.846C15.855 11.426 15.8325 10.9385 15.6075 10.526Z" fill="white"/>
</svg>
