<svg width="31" height="27" viewBox="0 0 31 27" fill="none" xmlns="http://www.w3.org/2000/svg">
<path d="M30.4201 4.30715C30.0098 2.03187 28.7841 0.46491 28.7313 0.399902L27.8781 1.07571C28.0582 1.3046 32.2173 6.73005 26.3233 11.6558C25.8208 12.0756 25.3428 12.4643 24.885 12.8273C25.0407 12.3085 25.1234 11.7668 25.1234 11.2156C25.1234 9.24911 24.1239 7.45733 22.4513 6.41991L21.8784 7.34492C23.2286 8.1819 24.0358 9.62832 24.0358 11.2142C24.0358 12.6512 23.3465 14.0164 22.1899 14.8723C21.7511 15.1919 21.3393 15.4858 20.9547 15.7607C19.9241 16.4975 19.079 17.1015 18.3855 17.7029C17.5594 17.5309 16.652 17.4415 15.6742 17.4415C14.6977 17.4415 13.7889 17.5309 12.9628 17.7029C12.2694 17.1029 11.4243 16.4989 10.3936 15.7607C10.0036 15.4817 9.58509 15.1824 9.13816 14.8574C7.99375 14.0015 7.31117 12.6431 7.31117 11.2142C7.31117 9.62697 8.11699 8.18054 9.46862 7.34492L8.89573 6.41991C7.22313 7.45597 6.22364 9.24911 6.22364 11.2156C6.22364 11.7668 6.30625 12.3085 6.46064 12.8259C6.00423 12.4629 5.52751 12.0756 5.02505 11.6558C-0.869005 6.73005 3.29015 1.3046 3.47028 1.07571L3.04366 0.738485L2.61705 0.399902C2.56558 0.46491 1.33856 2.03187 0.929549 4.30715C0.547627 6.42533 0.82662 9.56602 4.32757 12.4914C5.95006 13.8471 7.322 14.8831 8.49621 15.7364C8.50704 15.7445 8.51788 15.754 8.53006 15.7621L8.53142 15.7607C8.96887 16.079 9.37788 16.3715 9.76251 16.6465C10.5101 17.1801 11.1439 17.6338 11.6843 18.059C10.0686 18.6346 8.88761 19.5989 8.28222 20.8855C7.56443 22.4078 7.79331 24.1698 8.87677 25.4835C9.58915 26.3476 10.6008 26.7999 11.6518 26.7999C12.3032 26.7999 12.9709 26.6252 13.5912 26.2663C14.9713 25.4686 16.2145 23.5495 15.1731 20.7691C14.8562 19.9226 14.4485 19.2522 13.9176 18.6428C14.4675 18.5683 15.0552 18.5303 15.6755 18.5303C16.2958 18.5303 16.8836 18.5683 17.4334 18.6428C16.9025 19.2536 16.4963 19.9226 16.178 20.7691C15.1392 23.5427 16.3771 25.4591 17.7531 26.2568C18.3761 26.6184 19.0478 26.7945 19.702 26.7945C20.7516 26.7945 21.7605 26.3435 22.4729 25.4848C23.5591 24.1752 23.7893 22.4159 23.0729 20.8937C22.4675 19.603 21.2838 18.6373 19.6654 18.0604C20.2058 17.6351 20.8396 17.1828 21.5872 16.6478C21.9705 16.3743 22.3808 16.0804 22.8169 15.7634C22.8223 15.7594 22.8264 15.7553 22.8318 15.7526C24.0101 14.8953 25.3888 13.8552 27.0208 12.4914C30.5217 9.56602 30.8021 6.42533 30.4201 4.30715ZM14.1533 21.151C14.955 23.2922 14.1072 24.7115 13.0468 25.325C12.1041 25.8695 10.6604 25.9345 9.71511 24.7914C8.90251 23.8068 8.72915 22.4877 9.26547 21.3514C9.81533 20.184 11.0004 19.3402 12.6527 18.8947C13.3366 19.5556 13.8093 20.2355 14.1533 21.151ZM22.0883 21.3555C22.6219 22.4931 22.4485 23.8082 21.6359 24.7887C20.6893 25.9304 19.2428 25.8614 18.2989 25.3142C17.2425 24.702 16.3974 23.2854 17.1964 21.1496C17.5391 20.2341 18.0117 19.5542 18.697 18.892C20.352 19.3389 21.5384 20.1853 22.0883 21.3555Z" fill="white"/>
</svg>
